<svg id="Layer_1" data-name="Layer 1" xmlns="http://www.w3.org/2000/svg" xmlns:xlink="http://www.w3.org/1999/xlink" viewBox="0 0 222.49 207.14"><defs><style>.cls-1,.cls-76,.cls-8{fill:none;}.cls-2{fill:#ea8e10;}.cls-3{fill:#231f20;}.cls-4{fill:#f5a909;}.cls-5{fill:#12100b;}.cls-5,.cls-8{stroke:#4d4947;}.cls-5,.cls-76{stroke-width:6px;}.cls-6{fill:#d0d0d0;stroke-width:4px;}.cls-6,.cls-7{stroke:#231f20;}.cls-7,.cls-9{fill:#fff;}.cls-7{stroke-width:2px;}.cls-8{stroke-width:5px;}.cls-10{clip-path:url(#clip-path);}.cls-11{fill:#342f1b;}.cls-12{fill:#3c3522;}.cls-13{fill:#1a1916;}.cls-14{fill:#4d4c4c;}.cls-15{fill:#da392b;}.cls-16{fill:#df4825;}.cls-17{fill:#fdd31d;}.cls-18{fill:#d7cfcc;}.cls-19{fill:#070c0d;}.cls-20{fill:#3c1e14;}.cls-21{fill:#192325;}.cls-22{fill:#171a15;}.cls-23{fill:#38321a;}.cls-24{fill:#4b2b1a;}.cls-25{fill:#f4dd86;}.cls-26{fill:#383115;}.cls-27{fill:#363222;}.cls-28{fill:#341d0a;}.cls-29{fill:#403c2f;}.cls-30{fill:#4d472e;}.cls-31{fill:#504209;}.cls-32{fill:#ef9675;}.cls-33{fill:#595858;}.cls-34{fill:#050503;}.cls-35{fill:#1c1b1b;}.cls-36{fill:#575756;}.cls-37{fill:#fdfdfd;}.cls-38{fill:#19170f;}.cls-39{fill:#16150e;}.cls-40{fill:#614940;}.cls-41{fill:#c7a717;}.cls-42{fill:#363220;}.cls-43{fill:#f8e290;}.cls-44{fill:#ecd891;}.cls-45{fill:#484122;}.cls-46{fill:#201f1d;}.cls-47{fill:#34301e;}.cls-48{fill:#342a07;}.cls-49{fill:#141313;}.cls-50{fill:#009cdb;}.cls-51{fill:#0094c8;}.cls-52{fill:#009bd9;}.cls-53{fill:#e2af26;}.cls-54{fill:#fdd21d;}.cls-55{fill:#f8f8f8;}.cls-56{fill:#f4f4f4;}.cls-57{fill:#f0f0f0;}.cls-58{fill:#e5e5e5;}.cls-59{fill:#f5f7f9;}.cls-60{fill:#585133;}.cls-61{fill:#7cbee6;}.cls-62{fill:#feeb85;}.cls-63{fill:#79c1ec;}.cls-64{fill:#453d20;}.cls-65{fill:#f04e28;}.cls-66{fill:#e0ad27;}.cls-67{fill:#fcd11d;}.cls-68{fill:#0099d5;}.cls-69{fill:#e3b026;}.cls-70{fill:#feed8f;}.cls-71{fill:#5cb2de;}.cls-72{fill:#050504;}.cls-73{fill:#292929;}.cls-74{fill:#001f2b;}.cls-75{fill:#353535;}.cls-76{stroke:#13110c;}.cls-77{fill:#e30613;stroke:#dd1215;stroke-width:0.23px;}</style><clipPath id="clip-path" transform="translate(-8.95 -4.87)"><rect class="cls-1" x="126.32" y="56.23" width="39.76" height="36.7"/></clipPath></defs><path class="cls-2" d="M168,16.67a343.41,343.41,0,0,0-49.38-3.22,354.3,354.3,0,0,0-46.23,2.77V40.46H36.65v93.13H203.79V40.91H168V16.67Z" transform="translate(-8.95 -4.87)"/><path class="cls-3" d="M168,47.87V16.77c18.29,3.17,30.13,8.17,30.13,13.81a5.72,5.72,0,0,1,5.63,5.8V47.87Z" transform="translate(-8.95 -4.87)"/><path class="cls-3" d="M72.41,47.37V16.27c-18.29,3.17-30.13,8.17-30.13,13.81a5.72,5.72,0,0,0-5.63,5.8V47.37Z" transform="translate(-8.95 -4.87)"/><path class="cls-4" d="M213.1,132.78c-4.23-4.23-12.78-4.51-19.15-8.11-25.55-14.44-43.26-19-73.16-19h-1.14c-29.9,0-47.6,4.59-73.16,19-6.37,3.6-14.92,3.89-19.15,8.11-12,12-4.39,38-4.39,38A1.24,1.24,0,0,0,24.19,172H216.25a1.24,1.24,0,0,0,1.24-1.24S225.14,144.82,213.1,132.78Z" transform="translate(-8.95 -4.87)"/><path class="cls-4" d="M143.33,14.19c0-2.86-9.3-9.32-23.24-9.32s-23,6.46-23,9.32" transform="translate(-8.95 -4.87)"/><path class="cls-3" d="M216,172H24.43c-.73,0-1.31.83-1.31,1.87l3.52,8.49c0,1.08.56,2,1.25,2h13.4v26.13a1.49,1.49,0,0,0,1.4,1.55H81.94a1.49,1.49,0,0,0,1.39-1.55V194.13h72.93v16.33a1.48,1.48,0,0,0,1.41,1.55h39.84a1.48,1.48,0,0,0,1.4-1.55V184.33h13.63c.7,0,1.26-.89,1.26-2l3.52-8.49C217.32,172.83,216.73,172,216,172Z" transform="translate(-8.95 -4.87)"/><path class="cls-5" d="M162.68,155.44a7.07,7.07,0,0,1-7.06,7.07H84.82a7.07,7.07,0,0,1-7.06-7.07V128.88a7.07,7.07,0,0,1,7.06-7.07h70.8a7.07,7.07,0,0,1,7.06,7.07v26.56Z" transform="translate(-8.95 -4.87)"/><path class="cls-6" d="M213.37,147.78a15.25,15.25,0,1,1-15.25-15.26A15.25,15.25,0,0,1,213.37,147.78Z" transform="translate(-8.95 -4.87)"/><path class="cls-7" d="M207.56,147.78a9.44,9.44,0,1,1-9.44-9.44A9.44,9.44,0,0,1,207.56,147.78Z" transform="translate(-8.95 -4.87)"/><path class="cls-6" d="M57.57,147.78a15.26,15.26,0,1,1-15.26-15.26A15.26,15.26,0,0,1,57.57,147.78Z" transform="translate(-8.95 -4.87)"/><path class="cls-7" d="M51.76,147.78a9.44,9.44,0,1,1-9.45-9.44A9.44,9.44,0,0,1,51.76,147.78Z" transform="translate(-8.95 -4.87)"/><line class="cls-8" x1="70.88" y1="133.63" x2="151.66" y2="133.63"/><line class="cls-8" x1="70.88" y1="125.25" x2="151.66" y2="125.25"/><line class="cls-8" x1="70.88" y1="142.01" x2="151.66" y2="142.01"/><line class="cls-8" x1="70.88" y1="150.39" x2="151.66" y2="150.39"/><path class="cls-9" d="M115.52,91.79A1.25,1.25,0,0,1,114.27,93H43.56a1.25,1.25,0,0,1-1.25-1.25V57.37a1.25,1.25,0,0,1,1.25-1.25h70.71a1.25,1.25,0,0,1,1.25,1.25Z" transform="translate(-8.95 -4.87)"/><path class="cls-9" d="M198.12,91.79A1.25,1.25,0,0,1,196.88,93h-70.7a1.26,1.26,0,0,1-1.27-1.25V57.37a1.26,1.26,0,0,1,1.27-1.25h70.7a1.24,1.24,0,0,1,1.24,1.25Z" transform="translate(-8.95 -4.87)"/><g class="cls-10"><path class="cls-11" d="M153,61.28l.16-.49c-1.5,1.1-1.29-.84-2.07-1.16L149.93,61c-.49-.5-.47-1.29-1.08-1.7-.64.33-.6,1.15-1.16,1.61-.21-.3-.45-.58-.63-.89-.45-.78-.9-.85-1.22,0s-.78.63-1.33.44l.78,1.21c.64-.43.59-1.27,1.26-1.66l1.15,1.65c.7-.3.6-1.15,1.15-1.64.54.45.48,1.25,1,1.9L151,60.44C151.87,60.41,151.32,63.17,153,61.28Z" transform="translate(-8.95 -4.87)"/><path class="cls-12" d="M142.67,61.36a.59.59,0,0,0,.38.79c.31.09.36-.32.47-.56.23-.44,0-1.21.87-1.2a.54.54,0,0,0-.37-.77c-.3-.09-.36.32-.5.53C143.24,60.56,143.44,61.31,142.67,61.36Z" transform="translate(-8.95 -4.87)"/><path class="cls-13" d="M136.88,70.92c-.26-.87.05-1.91-.78-2.61a9.69,9.69,0,0,0,.53,2.61C136.71,71.05,136.8,71.05,136.88,70.92Z" transform="translate(-8.95 -4.87)"/><path class="cls-14" d="M136.35,123.28v-.36c-.5.06-.57.58-.87.84l.06,1.18.56-.34A1.43,1.43,0,0,0,136.35,123.28Z" transform="translate(-8.95 -4.87)"/><path class="cls-15" d="M131.49,109.26a8.08,8.08,0,0,0,3.53.16c.62-.12.79-.39.74-1a28.84,28.84,0,0,1-.86-6.06,16,16,0,0,0-.41-3,5.31,5.31,0,0,1-.91,2.54C132.27,104.2,131.16,106.53,131.49,109.26Z" transform="translate(-8.95 -4.87)"/><path class="cls-16" d="M134.29,98.36l-.46,0c0,.3,0,.57.36.59a.42.42,0,0,0,.33-.16C134.6,98.58,134.48,98.43,134.29,98.36Z" transform="translate(-8.95 -4.87)"/><path class="cls-17" d="M136.31,67.82l-.21.49a13.1,13.1,0,0,1,.68,2.69c-.09.61.27,1.12.38,1.69a1.27,1.27,0,0,0,0,.2c-.22.77.36,1.46.19,2.22.56,1.84.28,3.86.95,5.68-.58-.08-1.1.21-1.37,1s-.2,1.76.47,2.06c1.66.74.93,1.95.82,3.06a.82.82,0,0,1-.12.25l0,1c.28.77-.58,1.65.21,2.38a8.11,8.11,0,0,0,5.56,1.79c1.45,0,1.77-.39,1.87-1.85a1.35,1.35,0,0,1,1.15-1.25c.54-.12,1.13-.24,1.32-.89a.71.71,0,0,0-.7-.39,21.55,21.55,0,0,1-5.31-1,21,21,0,0,0,7.77,1,11.8,11.8,0,0,0,4.29-.6,2.21,2.21,0,0,0,.83-2.77,13.41,13.41,0,0,0-.5-2.08c-.87-.65-1.59.48-2.2.15a6.64,6.64,0,0,0,1.95-.54,1.15,1.15,0,0,0,.77-1.25,1.61,1.61,0,0,0-1.79-1.09c-1.13,0-2.27,0-3.4,0a2.36,2.36,0,0,0-.46.1,2.11,2.11,0,0,0-.58.34c-1.86,1.62-3.58,1.65-5.4.07l-.42-.44c-1.31-1.41-1-3-.4-4.54,1.48-2.16,3.5-2.69,5.68-1.37a1.56,1.56,0,0,0,2.16-.06,2.79,2.79,0,0,1,2.52-.68c.44.08,1,.17,1.22-.43a9.58,9.58,0,0,1-.53-3.79c0-2.44-.36-4.85-.42-7.29-.73-.38-1.74-.31-2-1.42,0-.23-.4,0-.59.15s-.32.71-.74.82c-1.11-1.43-1.11-1.43-2.2-.06-.4,0-.48-.45-.64-.7-.43-.65-.84-.82-1.21,0-.47,1-.9.48-1.37,0l0-.1-.1,0c-.6-.14-.59-.13-.86.42-.17.34-.1,1.11-.86.55v0c-.57-.8-1.12-1.1-1.56.1-.31.84-.61.81-1.1.08s-.92-.74-1,.24-.48,1.15-1.17.39a.63.63,0,0,0-.53-.24c-.38.28-.27.76-.41,1.14s-.3.53-.64.32c-1.35-.83-1,.24-.83.82C135.75,65.42,135.68,66.71,136.31,67.82Z" transform="translate(-8.95 -4.87)"/><path class="cls-18" d="M135.48,123.76a26.52,26.52,0,0,1-4.71-.25c-1-.22-2,.44-2.92.44a30.87,30.87,0,0,0-4.74.3,22.62,22.62,0,0,0-7.31,1.94c-1.35.72-1.28,1.53,0,2.29a17.35,17.35,0,0,0,5.59,1.66c2.16.42,4.45.18,6.5.7,2.54.65,5-.1,7.48.4a6.61,6.61,0,0,0,2.41-.28.5.5,0,0,0-.34-.5c-.47-.16-1-.21-1.43-.37-1.26-.16-1.47-.94-1.26-2s.79-2.11,1-3.23A1.23,1.23,0,0,0,135.48,123.76Z" transform="translate(-8.95 -4.87)"/><path class="cls-19" d="M135.54,124.94a10,10,0,0,0-1.16,3.21c-.31,1.63-.07,1.92,1.67,2.23a.37.37,0,0,0,0-.39c0-.19-.15.08-.1-.11s-.17-.16-.15-.22.22,0,.32,0a19.4,19.4,0,0,0,4.36.59,15.16,15.16,0,0,0,5.05-.65c.75-.38,1.59,0,2.35-.27l1.36-.08c0-.27-.12-.39-.32-.5a19.11,19.11,0,0,0-2.4-.22,12.51,12.51,0,0,0,5.67-1,.91.91,0,0,0,.27-.32,6.33,6.33,0,0,0-3-3.3c-.63-.38-1.22-.73-1.16-1.59a.63.63,0,0,0-.53.26c-1.63,1.37-3.44,1.08-5.27.58a1.45,1.45,0,0,1-.68-.41,15.19,15.19,0,0,1,.07-6,.5.5,0,0,0-.22-.41,6.53,6.53,0,0,0-2.71-.25,3,3,0,0,0-1.7.28.39.39,0,0,0-.12.43c1,.78,2.21,0,3.21.6a2.07,2.07,0,0,1,.16.85c0,1.53,0,3.07.05,4.6a1.3,1.3,0,0,0,.11.43c.63.72.42,1.06-.47,1.34-1.42.43-2.73-.2-4.09-.27A.68.68,0,0,0,135.54,124.94Z" transform="translate(-8.95 -4.87)"/><path class="cls-20" d="M138.34,90.27c-.55-.64.45-1.47-.27-2.09a10.18,10.18,0,0,1-2.39,4,9.88,9.88,0,0,0-2.41,6.15c0,.09,0,.23,0,.28,1.57,1.51.17,2.66-.49,3.85A14.82,14.82,0,0,0,131,108c-.06.53-.44,1.28.48,1.56a1,1,0,0,0,.27-.38c-.1-3.26,1.75-5.94,2.77-8.37a31.32,31.32,0,0,0,.58,6.43c.08.5,0,1.09.64,1.33a.53.53,0,0,0,.42-.13c.38-1.73-.28-3.39-.37-5.08-.06-1.14-.11-2.29-.25-3.42-.1-.85.23-1.3,1-1.35,1-.06,2.18-.51,2.81.82.25,1.68.41,3.37.59,5.06a1.79,1.79,0,0,0,.56,1.4.46.46,0,0,0,.47,0c.6-1.27,0-2.55-.06-3.81a5.3,5.3,0,0,1,.6-3.39c.94-1.62,0-3.35-.62-5a1.72,1.72,0,0,0-1.28-1.24c-.49.27-.29.67-.13,1A12.37,12.37,0,0,1,140.73,98a7.79,7.79,0,0,0-6.31-.06c-.24.27-.25.27-.33,0a9.19,9.19,0,0,1,1-3.7c.93-1.81,1.55-2.09,4-1.85.36-.93-.37-1.08-1-1.29s-.76-.29-.12-.64A.92.92,0,0,0,138.34,90.27Z" transform="translate(-8.95 -4.87)"/><path class="cls-21" d="M136,108.47h-.25a4,4,0,0,1-3.06.68,1.47,1.47,0,0,0-1.21.11l0,.31.76,1.57a.43.43,0,0,0,.3-.24,1.87,1.87,0,0,1,3.2.42c.35.92.95.7,1.59.6a2.94,2.94,0,0,0,.95-.3c3.05-1.93,6.61-1.52,9.92-2.24.68-.15,1,.05,1,.76a.64.64,0,0,0,.46.44,12.92,12.92,0,0,1,1.28-2.47c.58-.66-.12-1.68-.25-2.55a.29.29,0,0,0-.39.13,2,2,0,0,0-.16,1.12,1,1,0,0,1-.83,1.14,20.32,20.32,0,0,1-6.76.67c-.57,0-.81-.38-.94-.9s-.1-1.35-.66-1.84h-.28a1.86,1.86,0,0,0-.28,1.75c.43,1.75-.18,2-1.56,2.62-.21.09-.44.16-.66.24-.83.36-1.44.36-1.51-.8A1.36,1.36,0,0,0,136,108.47Z" transform="translate(-8.95 -4.87)"/><path class="cls-22" d="M149.61,110.58l-.29-.39c-.43,0-.66.33-.9.63a8.39,8.39,0,0,1-4.27,2.71c-1,.3-1.93.59-1.73,2,.05.39-.43.63-.4,1.05a1,1,0,0,0,.94.42,15.34,15.34,0,0,1,3.15-.58c.49.07.46.45.47.8,0,.72,0,1.43,0,2.13-.09,1.07.41,2.28-.75,3.09a.6.6,0,0,0-.1.39c.84.72,1.57-.35,2.38-.17l.22-.28c-2.09-1.81-.7-4.22-1-6.32-.08-.56.69-.38,1-.48,1.12-.31,1.72-.85,1.53-2.12A17,17,0,0,0,149.61,110.58Z" transform="translate(-8.95 -4.87)"/><path class="cls-23" d="M136.31,67.82l-.87-4.62,1.37.8a6.11,6.11,0,0,0,.5-2l1.49,1.37a4,4,0,0,0,.49-1.92c.83.08.82,1,1.38,1.31.89-.12.26-2.55,2-1.33,0-.67-.57-.93-1-1.36-.61.46-.54,1.28-1.05,1.83-.61-.3-.8-1.17-1.6-1.31l-.45,1.82c-.63-.18-.87-.92-1.59-1l-.46,1.92-1.79-1.13C135.31,64.26,135.21,66.18,136.31,67.82Z" transform="translate(-8.95 -4.87)"/><path class="cls-24" d="M150.35,105.57h.29c-.3-2-1.67-3.56-1.81-5.57-.14,0-.2.19-.33.24.08-.12.17-.23.26-.35.15-.8-.66-1.61,0-2.41a3.48,3.48,0,0,1-1.15-3.35,2.46,2.46,0,0,0-1-.89,1.32,1.32,0,0,0-.45,1,34.55,34.55,0,0,0,3.52,10.84C149.87,105.31,150,105.58,150.35,105.57Z" transform="translate(-8.95 -4.87)"/><path class="cls-25" d="M153,61.28c.08,3.23.27,6.47.43,9.7a3.08,3.08,0,0,0,.68,2.06c0,.39.23.61.63.61.81-.43.45-1,0-1.34a2.41,2.41,0,0,1-.77-2.16,28.15,28.15,0,0,0-.28-4.1c0-1.46,0-2.91,0-4.37,0-.36.28-1-.57-.87l0,0C152.93,60.9,152.81,61,153,61.28Z" transform="translate(-8.95 -4.87)"/><path class="cls-26" d="M138.11,87.18c.75-.28.51-1,.51-1.48a1.5,1.5,0,0,1,1-1.65c-.79-.24-1.46.47-2-.19a2.09,2.09,0,0,1-.52-1.3c0-1.2.49-1.56,2.26-1.51-1.15-.41-1.11-1.37-1.21-2.3a14.38,14.38,0,0,0-.57-3.51c-.09-.13-.18-.13-.27,0,.15,1.13.32,2.26.44,3.4a2.49,2.49,0,0,1-.64,2.54,1.8,1.8,0,0,0,.13,2.79c1.32.78,1,1.74.9,2.78A3,3,0,0,0,138.11,87.18Z" transform="translate(-8.95 -4.87)"/><path class="cls-27" d="M154.93,81c-.5.72-.5.72-3.32,1.65a4.09,4.09,0,0,0,2.76-.3c.56.26.18,1,.57,1.29.33.16.47,0,.59-.3A5,5,0,0,1,156,79.1a4,4,0,0,0,.42-3.27.28.28,0,0,0-.37.07,1.59,1.59,0,0,0-.21.68c-.28,2.12-.28,2.12-2.3,2.09a1.54,1.54,0,0,0-1.42.51.55.55,0,0,0,0,.4c.38.39.85.24,1.3.22A1.3,1.3,0,0,1,154.93,81Z" transform="translate(-8.95 -4.87)"/><path class="cls-28" d="M146.43,94c.29-.2.22-.51.24-.79a8.27,8.27,0,0,1-.82-2.61c.14-.29,0-.37-.26-.35.18,1.5-.75,1.71-1.91,1.68a9,9,0,0,1-5.34-1.68l-.4,0c.83,1.64,2.47,1.87,4,2.29a3.25,3.25,0,0,0,1.28.06A2.81,2.81,0,0,1,146.43,94Z" transform="translate(-8.95 -4.87)"/><path class="cls-29" d="M156.09,75.85l.3,0c0-.09,0-.19,0-.28-.13-1-1.08-1.58-1.06-2.6-1.52-1.44-1.13-3.35-1.26-5.14a3,3,0,0,0-.24-1.52c-.08-.13-.16-.13-.25,0,.07,1.67.18,3.33.21,5,0,.6.45.77.73,1.13s1,.88-.15,1.1a.2.2,0,0,0-.32,0A6.3,6.3,0,0,0,156.09,75.85Z" transform="translate(-8.95 -4.87)"/><path class="cls-30" d="M155.53,83.34l-.48.28c-.45.38-.13.85,0,1.16a1.56,1.56,0,0,1-.87,2.29c-1.38.74-2.93.5-4.39.73-.42.26-1.24-.5-1.36.53,1.51-.12,3-.16,4.52-.38,2.73-.4,3.2-1.14,2.66-3.76A8.14,8.14,0,0,1,155.53,83.34Z" transform="translate(-8.95 -4.87)"/><path class="cls-31" d="M148.43,88.33c.26-.68,1-.17,1.36-.53-1.42-.09-2.85-.25-4.27-.25s-2.47-1.12-4.13-.65c2.3,1,4.55.92,6.64,1.56.09.18.2.19.33,0A.15.15,0,0,0,148.43,88.33Z" transform="translate(-8.95 -4.87)"/><path class="cls-21" d="M137.2,116.78v-.24c-.21-.54-.7-.58-1.17-.66-2-.37-2-.38-2.18-2.54-.08-1-.27-2-1.46-2.34l-.17.14a4.76,4.76,0,0,1,.92,3.73c-.12.82.28,1.14,1,1.42s1.85,0,2.49.83a.27.27,0,0,0,.3.1A.49.49,0,0,0,137.2,116.78Z" transform="translate(-8.95 -4.87)"/><path class="cls-32" d="M147.62,94.12c-.18,0-.47-.07-.51,0-.36.68.91,3.2,1.66,3.35.41-.28-.28-.46-.07-.72a8.25,8.25,0,0,0-.65-1.57C148,94.79,148.1,94.33,147.62,94.12Z" transform="translate(-8.95 -4.87)"/><path class="cls-33" d="M148.94,128.94l.3.28a5.6,5.6,0,0,0,2.49-.52c.66-.25,1.17-.64.73-1.47l-.37,0c-.36.88-1.23.76-1.91,1C149.73,128.41,149.07,128.2,148.94,128.94Z" transform="translate(-8.95 -4.87)"/><path class="cls-34" d="M153.62,66.28h.13l.12,0V60c-.65,0-.64.47-.75.81.66.13.39.67.4,1C153.58,63.33,153.59,64.8,153.62,66.28Z" transform="translate(-8.95 -4.87)"/><path class="cls-35" d="M137.49,130.68l.33.28a30.54,30.54,0,0,0,6,0,.29.29,0,0,0-.13-.42c-2-.46-4-.19-6-.26A.29.29,0,0,0,137.49,130.68Z" transform="translate(-8.95 -4.87)"/><path class="cls-19" d="M136.85,117.12h-.22c0,1.48,0,3-.06,4.45,0,.45.22,1-.22,1.35a.32.32,0,0,0,0,.42c.29.24.56.3.79-.08a2.11,2.11,0,0,0,.14-.49c.11-1.37.07-2.74.05-4.11C137.33,118.11,137.38,117.51,136.85,117.12Z" transform="translate(-8.95 -4.87)"/><path class="cls-36" d="M143.8,130.63v.31a2.21,2.21,0,0,0,2-1.05c.47-.82,1.46-.07,2.06-.59a6.49,6.49,0,0,0-2.67,0C145,130,144,129.92,143.8,130.63Z" transform="translate(-8.95 -4.87)"/><path class="cls-30" d="M148.36,88.5l-.34,0a3.08,3.08,0,0,1-1.4.66,1.07,1.07,0,0,0-1,1.15c.09.12.18.23.26.35.23-.58.47-1.11,1.21-1.18A1.42,1.42,0,0,0,148.36,88.5Z" transform="translate(-8.95 -4.87)"/><path class="cls-37" d="M155.37,73c-.28,1.13.71,1.73,1.06,2.6C156.68,74.43,155.72,73.82,155.37,73Z" transform="translate(-8.95 -4.87)"/><path class="cls-38" d="M137.25,75.25h.27a7,7,0,0,0-.35-2.35C136.57,73.7,137.39,74.46,137.25,75.25Z" transform="translate(-8.95 -4.87)"/><path class="cls-39" d="M136.88,70.92h-.25a2.05,2.05,0,0,0,.53,1.77C137.07,72.1,137,71.51,136.88,70.92Z" transform="translate(-8.95 -4.87)"/><path class="cls-40" d="M148.05,95.18a2.82,2.82,0,0,0,.65,1.57A1.43,1.43,0,0,0,148.05,95.18Z" transform="translate(-8.95 -4.87)"/><path class="cls-41" d="M148.76,99.88c-.49.16-.33.5-.21,1.08l.28-1V99.9Z" transform="translate(-8.95 -4.87)"/><path class="cls-37" d="M143,80.32h.1l0,.1a4.65,4.65,0,0,0,6,0v-.1h.1a4.25,4.25,0,0,0,1.16-4.06,4.55,4.55,0,0,0-3.83-3.15c-2-.27-3.41.77-4.33,2.52A4.66,4.66,0,0,0,143,80.32Z" transform="translate(-8.95 -4.87)"/><path class="cls-42" d="M142.38,75.55c2.44-3.33,5.48-3.11,7.75.56a.22.22,0,0,0,.34,0c-.15-2,.44-2.58,2.47-2.45.4,0,.83.26,1.2-.1h.27l-.32-.47a3.93,3.93,0,0,0-4.32.91c-.51.54-.73,0-1-.23a4.29,4.29,0,0,0-6.43,1.39A.35.35,0,0,0,142.38,75.55Z" transform="translate(-8.95 -4.87)"/><path class="cls-43" d="M154.93,81c.17-1.22-.55-1.57-1.57-1.57-.41,0-.82.08-1.23.12-1.5-.6-1.95-.5-2.53.57,1.24,0,2.47.06,3.71,0A1.54,1.54,0,0,1,154.93,81Z" transform="translate(-8.95 -4.87)"/><path class="cls-44" d="M154.18,87.07c1.21-.23,1.66-.88,1.19-2.1a8.84,8.84,0,0,1-.32-1.35c-.3-.39.3-1.25-.68-1.27a6,6,0,0,0,.31,2.26A2,2,0,0,1,154.18,87.07Z" transform="translate(-8.95 -4.87)"/><path class="cls-45" d="M149.13,80.43c-1.13.21-2,1-3.32.95-1-.08-1.73-.93-2.73-.95A4,4,0,0,0,149.13,80.43Z" transform="translate(-8.95 -4.87)"/><path class="cls-46" d="M149.6,80.12c.66-1,1.72-.21,2.53-.57v-.29c-1-.3-1.66-.77-1.36-2a1.06,1.06,0,0,0-.42-1.15.79.79,0,0,1-.22,0,7.88,7.88,0,0,1-.89,4.21Z" transform="translate(-8.95 -4.87)"/><path class="cls-47" d="M142.38,75.55c0-.14,0-.29,0-.44a4,4,0,0,0,.63,5.21C142.37,78.78,141.65,77.26,142.38,75.55Z" transform="translate(-8.95 -4.87)"/><path class="cls-48" d="M138.25,81.73c-.23.08-.56,0-.65.38.51,0,.29.67.66.83.09-.48.78-.35.8-.59C139.11,81.94,138.67,81.78,138.25,81.73Z" transform="translate(-8.95 -4.87)"/><path class="cls-49" d="M137.49,130.68a1.61,1.61,0,0,1,0-.22c-.39-.56-.84-.81-1.44-.29v.21A2.09,2.09,0,0,0,137.49,130.68Z" transform="translate(-8.95 -4.87)"/><path class="cls-50" d="M142,116.52c.43-.28,1.16-.35.85-1.17s.18-1.18.9-1.34a8.62,8.62,0,0,0,5.58-3.82c.1-.45.51-.81.42-1.42a20.78,20.78,0,0,1-4.75.68c-2.88-.24-5.17,1.21-7.65,2.16a.75.75,0,0,0-.12.07c-.07,1,.66,1.43,1.34,1.82s1,.86.48,1.68a1,1,0,0,0-.11,1.31l2.94,0Z" transform="translate(-8.95 -4.87)"/><path class="cls-51" d="M138.93,116.49c1-1.67,1.17-3.08-1-3.9-.3-.11-.45-.6-.67-.91-.72.09-1.4.22-1.25-.94.09-.75-.39-1-1.1-.89a6.06,6.06,0,0,1-1.7,0c-1.14-.18-1,.41-.78,1.12a3.22,3.22,0,0,1,1.1,3.07c-.26,1.35.42,1.9,1.62,2.08.7.11,1.39.26,2.09.39Z" transform="translate(-8.95 -4.87)"/><path class="cls-50" d="M141.52,125.24a8.91,8.91,0,0,1-4.75,0c-1.15-.37-1.22.65-1.47,1.27-.69,1.71-.6,1.92,1.19,2.3a17.24,17.24,0,0,0,7.89.08c.3-.83-.34-1.3-.74-1.82A9.94,9.94,0,0,0,141.52,125.24Z" transform="translate(-8.95 -4.87)"/><path class="cls-52" d="M143.21,125.11c.33-.91,1-.59,1.46-.28a1.14,1.14,0,0,1,.44,1.61c-.85,1.3,0,1.36.91,1.33a14,14,0,0,0,4.16-.56c.28-1.31-1.16-1.45-1.4-2.21.73.55,1.27,1.56,2.23,2.13.39-.16,1-.11.49-.87a4.59,4.59,0,0,0-5-2,8.41,8.41,0,0,1-3.24.07c-.41-.07-.9-.4-1,.21s.5.6.92.69Z" transform="translate(-8.95 -4.87)"/><path class="cls-53" d="M136.85,117.12l.09,6c.44.8,1.06.76,1.75.39a3.07,3.07,0,0,0,.34-2.23c-.2-1.79.11-3.3,1.85-4.19-1.19-.56-2.47,0-3.68-.35Z" transform="translate(-8.95 -4.87)"/><path class="cls-54" d="M140.88,117.13c-2.24.78-2.24.78-2.24,3.17,0,1,0,2.09,0,3.14a1.19,1.19,0,0,0,1.88-.13c.33-1.77-.14-3.6.36-5.36Z" transform="translate(-8.95 -4.87)"/><path class="cls-55" d="M136.05,130.17l1.44.29a29.59,29.59,0,0,0,6.31.17c.47-.45,1.7-.11,1.41-1.35a18.29,18.29,0,0,1-9.35-.07c-.4-.1-.94-.66-1.16,0s.58.59,1,.82A1.47,1.47,0,0,0,136.05,130.17Z" transform="translate(-8.95 -4.87)"/><path class="cls-56" d="M136.35,123.28a1.37,1.37,0,0,0-.25,1.32,7.29,7.29,0,0,0,4.85.26c.38-.12.87-.27.81-.84s-.4-.59-.83-.54a7.48,7.48,0,0,1-4,0Z" transform="translate(-8.95 -4.87)"/><path class="cls-57" d="M141.79,116.78c-.28.06-.53.12-.52.51,0,1.8,0,3.59,0,5.38a.45.45,0,0,0,.52.51,1.86,1.86,0,0,0,.94-1.65,35.32,35.32,0,0,0,0-3.71C142.7,117.28,142.69,116.59,141.79,116.78Z" transform="translate(-8.95 -4.87)"/><path class="cls-58" d="M148.1,122.62c-.35-.29-.63-.71-1.14-.11-.22.26-.76.23-1.15.33-.66-.51-1.45-.26-2.18-.38s-1.68-.36-1.29,1a6.84,6.84,0,0,0,4.82.06C147.67,123.37,148,123.15,148.1,122.62Z" transform="translate(-8.95 -4.87)"/><path class="cls-59" d="M148.94,128.94l2.41-.59c.56-.14.92-.43.74-1.09a17.86,17.86,0,0,1-7,.87C146.32,129.63,147.75,128.7,148.94,128.94Z" transform="translate(-8.95 -4.87)"/><path class="cls-60" d="M142.34,123.48c-.23-1.4.67-.68,1.2-.64.26-.1.4-.27.29-.56-.64-1-.42-2.1-.49-3.17-.05-.78.25-1.63-.46-2.27a1.37,1.37,0,0,0-.89-.32h-.12a.87.87,0,0,0-.08.26c.34,0,.67.09.64.56-.13,2,.42,4-.63,5.84A.43.43,0,0,0,142.34,123.48Z" transform="translate(-8.95 -4.87)"/><path class="cls-61" d="M141.52,125.24c.91,1.26,2.37,2.09,2.86,3.68.59.11.72-.14.44-.62A5.87,5.87,0,0,0,141.52,125.24Z" transform="translate(-8.95 -4.87)"/><path class="cls-62" d="M140.89,118c-.93,1.71-.38,3.54-.45,5.32a.34.34,0,0,0,.48-.11Z" transform="translate(-8.95 -4.87)"/><path class="cls-63" d="M151,127.13a9.38,9.38,0,0,0-3.27-3.16c.68,1.5,2,2,2.43,3.24Z" transform="translate(-8.95 -4.87)"/><path class="cls-57" d="M143.21,125.11v.08h-.08c-.16.43.22.6.44.78s.47.84,1,.62a.72.72,0,0,0,.33-.87,1,1,0,0,0-1-.8A3.19,3.19,0,0,0,143.21,125.11Z" transform="translate(-8.95 -4.87)"/><path class="cls-64" d="M140.92,123.16l-.49.11a2.94,2.94,0,0,1-1.78.17,2.73,2.73,0,0,1-1.71-.28l0,.31a4,4,0,0,0,4,0Z" transform="translate(-8.95 -4.87)"/><path class="cls-65" d="M146.43,94c-.15-1.43-.79-1.92-2.32-1.76a7.11,7.11,0,0,1-6.17-2c-.74-.34-.81.31-.86.69-.09.54.42.33.69.37.71.12,1.39.26,1.52,1.14h0c.71,0,.9.62,1.16,1.12a10.82,10.82,0,0,1,1.09,4.14c0,.5,0,1-.58,1.15-.77.17-.63.73-.58,1.24.17,1.91.36,3.82.54,5.73.3,3.33.3,3.31,3.62,3.21a28.05,28.05,0,0,0,4.64-.67c1.1-.23,1.92-.61,1.28-2a2.88,2.88,0,0,1-.09-.85A43.65,43.65,0,0,1,146.43,94Z" transform="translate(-8.95 -4.87)"/><path class="cls-17" d="M138.08,110.79c2.68-.71,2.78-.85,2.58-3.51,0-.47,0-.94,0-1.41-.3-2.21-.59-4.43-.89-6.64a2.84,2.84,0,0,0-2.45-.35c-.84.12-1,.77-1.06,1.48a30,30,0,0,0,.37,4.44c.13,1.43.33,2.86.53,4.28C137.22,109.74,137.17,110.56,138.08,110.79Z" transform="translate(-8.95 -4.87)"/><path class="cls-65" d="M139.27,92.5h0c-1.94-1.1-2.95-.9-4.12,1a7.58,7.58,0,0,0-1.34,4.85c.15.18.3.14.46,0,1.84-1,3.79-.72,5.69-.38,1.15.2,1.09.37,1-1A9.33,9.33,0,0,0,139.27,92.5Z" transform="translate(-8.95 -4.87)"/><path class="cls-66" d="M138.08,110.79c-.78-1.08-.54-2.39-.73-3.58-.34-2.11-.47-4.26-.73-6.38-.15-1.22.22-1.83,1.54-1.62a13.68,13.68,0,0,0,1.57,0c0-.31.19-.73-.28-.85a8.78,8.78,0,0,0-4.11,0c-.58.13-.35.6-.31.94q.48,4.58,1,9.14l.44,2.82A4.85,4.85,0,0,0,138.08,110.79Z" transform="translate(-8.95 -4.87)"/><path class="cls-67" d="M146.84,116.85c0-.36.33-.89-.45-.82-2.14.72-2.17.72-2.13,3,0,1.18-.28,2.4.3,3.53a1.32,1.32,0,0,0,1.25,0c1.82-.5.92-2,1-3.05-.34.64-.34.64-.31,1.92,0,.19-.3-.11-.14,0C146.69,120,146.52,118.38,146.84,116.85Z" transform="translate(-8.95 -4.87)"/><path class="cls-68" d="M149.28,112.14c0-.27.1-1-.43-.46a10.2,10.2,0,0,1-5.16,2.86c-.39.08-.42.3-.43.6,0,.48.26.55.63.54a10.28,10.28,0,0,0,5.36-1.12C149.31,113.76,149.18,113,149.28,112.14Z" transform="translate(-8.95 -4.87)"/><path class="cls-69" d="M144.67,122.56a27.9,27.9,0,0,0,0-3.17c-.19-1.58.14-2.78,1.75-3.36-1.17.25-2.52-.24-3.51.81,0,1.42.09,2.84,0,4.25a1.31,1.31,0,0,0,.91,1.49A.58.58,0,0,0,144.67,122.56Z" transform="translate(-8.95 -4.87)"/><path class="cls-70" d="M146.84,116.85c-1,1.57-.17,3.26-.4,4.89.54-.66,0-1.49.41-2.17C146.85,118.67,146.84,117.76,146.84,116.85Z" transform="translate(-8.95 -4.87)"/><path class="cls-71" d="M149.28,112.14a2.34,2.34,0,0,0,0,2.42C149.81,113.76,149.49,113,149.28,112.14Z" transform="translate(-8.95 -4.87)"/><path class="cls-72" d="M144.67,122.56l-.86,0-.27.26a7.51,7.51,0,0,0,2.27,0v-.22Z" transform="translate(-8.95 -4.87)"/><path class="cls-37" d="M150.35,76.12a5,5,0,0,1-.22,3.14h2a4.15,4.15,0,0,1,1.81-.25c.51,0,.85.83,1.36.32a2.9,2.9,0,0,0,.84-2.2c0-.43,0-.86,0-1.28a5.4,5.4,0,0,0-2-2.33,11.33,11.33,0,0,0-1.5-.29C150.45,73.14,149.69,74.11,150.35,76.12Z" transform="translate(-8.95 -4.87)"/><path class="cls-73" d="M145.23,77.87c.34-.05.54-.25.5-.57a.51.51,0,0,0-.57-.51.54.54,0,0,0,.07,1.08Z" transform="translate(-8.95 -4.87)"/><path class="cls-74" d="M141.45,113.83c1-1.39,1.07-1.88.79-3.81-.4.62-.13,1.25-.29,1.81S141.66,113,141.45,113.83Z" transform="translate(-8.95 -4.87)"/><path class="cls-75" d="M152.62,77.6a.51.51,0,0,0,.59-.48.51.51,0,0,0-.52-.57.49.49,0,0,0-.57.49A.48.48,0,0,0,152.62,77.6Z" transform="translate(-8.95 -4.87)"/></g><path class="cls-76" d="M185.61,93.13c0-9-9.76-15.58-18.49-15.58s-18.48,6.67-18.48,15.58" transform="translate(-8.95 -4.87)"/><path class="cls-3" d="M28.25,86.56A1.24,1.24,0,0,1,27,87.8H10.2A1.25,1.25,0,0,1,9,86.56v-24a1.26,1.26,0,0,1,1.25-1.25H27a1.24,1.24,0,0,1,1.24,1.25Z" transform="translate(-8.95 -4.87)"/><path class="cls-76" d="M18.6,87.8c0,5.76,8,10.42,17.89,10.42" transform="translate(-8.95 -4.87)"/><path class="cls-3" d="M212.14,86.56a1.25,1.25,0,0,0,1.24,1.24H230.2a1.25,1.25,0,0,0,1.24-1.24v-24a1.25,1.25,0,0,0-1.24-1.25H213.38a1.25,1.25,0,0,0-1.24,1.25Z" transform="translate(-8.95 -4.87)"/><path class="cls-76" d="M221.79,87.8c0,5.76-8,10.42-17.88,10.42" transform="translate(-8.95 -4.87)"/><path class="cls-77" d="M173.45,34.68A10.6,10.6,0,1,0,184,24.09,10.59,10.59,0,0,0,173.45,34.68Z" transform="translate(-8.95 -4.87)"/><path class="cls-77" d="M44.56,34.68A10.6,10.6,0,1,0,55.14,24.09,10.59,10.59,0,0,0,44.56,34.68Z" transform="translate(-8.95 -4.87)"/><path d="M94.78,41.51a12.41,12.41,0,0,1-5.16.93C84.11,42.44,80,39,80,32.55c0-6.12,4.15-10.27,10.21-10.27a10.44,10.44,0,0,1,4.64.87l-.61,2.06a9.26,9.26,0,0,0-3.94-.81c-4.59,0-7.63,2.93-7.63,8.06,0,4.79,2.75,7.86,7.51,7.86a10.17,10.17,0,0,0,4.12-.81Z" transform="translate(-8.95 -4.87)"/><path d="M97.94,22.86a26.41,26.41,0,0,1,4.84-.4c2.7,0,4.44.49,5.66,1.59A4.86,4.86,0,0,1,110,27.76a5.13,5.13,0,0,1-3.69,5v.09c1.51.52,2.41,1.91,2.88,3.95a31.11,31.11,0,0,0,1.5,5.36h-2.61a25.19,25.19,0,0,1-1.3-4.67c-.58-2.7-1.63-3.71-3.92-3.8h-2.38v8.47H97.94Zm2.52,8.91H103c2.7,0,4.41-1.48,4.41-3.72,0-2.52-1.82-3.62-4.49-3.65a10.83,10.83,0,0,0-2.5.23Z" transform="translate(-8.95 -4.87)"/><path d="M113.54,22.86a24.65,24.65,0,0,1,4.61-.4c2.53,0,4.15.43,5.37,1.42a4.07,4.07,0,0,1,1.62,3.45,4.63,4.63,0,0,1-3.3,4.29v.06a5,5,0,0,1,4,4.9,5.31,5.31,0,0,1-1.65,3.92c-1.37,1.25-3.57,1.83-6.76,1.83a28.6,28.6,0,0,1-3.92-.24Zm2.52,8h2.3c2.67,0,4.23-1.39,4.23-3.28,0-2.29-1.74-3.19-4.29-3.19a11.59,11.59,0,0,0-2.24.17Zm0,9.37a14.66,14.66,0,0,0,2.12.11c2.61,0,5-1,5-3.8,0-2.67-2.29-3.77-5-3.77h-2.09Z" transform="translate(-8.95 -4.87)"/><path d="M131.78,22.6V34.17c0,4.38,1.95,6.24,4.56,6.24,2.9,0,4.75-1.91,4.75-6.24V22.6h2.56V34c0,6-3.17,8.47-7.4,8.47-4,0-7-2.29-7-8.35V22.6Z" transform="translate(-8.95 -4.87)"/><path d="M147.67,39.08a9,9,0,0,0,4.53,1.27c2.58,0,4.09-1.36,4.09-3.33s-1-2.87-3.68-3.89c-3.2-1.13-5.17-2.78-5.17-5.54,0-3.05,2.53-5.31,6.33-5.31a8.91,8.91,0,0,1,4.32,1l-.7,2.06a7.75,7.75,0,0,0-3.71-.93C151,24.37,150,26,150,27.3c0,1.83,1.19,2.73,3.89,3.77,3.31,1.28,5,2.87,5,5.74s-2.23,5.63-6.85,5.63a10,10,0,0,1-5-1.25Z" transform="translate(-8.95 -4.87)"/></svg>